<?xml version="1.0" encoding="UTF-8" standalone="no"?>
<!-- Created with Inkscape (http://www.inkscape.org/) -->
<svg
   xmlns:svg="http://www.w3.org/2000/svg"
   xmlns="http://www.w3.org/2000/svg"
   version="1.0"
   width="3500"
   height="275"
   id="svg2">
  <defs
     id="defs4" />
  <g
     id="layer1">
    <g
       transform="translate(62.5,-839.8686)"
       id="g15009">
      <rect
         width="3425"
         height="200"
         x="-25"
         y="877.36218"
         style="opacity:1;fill:#00800c;fill-opacity:1;fill-rule:evenodd;stroke:none;stroke-width:1.00100005;stroke-linecap:square;stroke-linejoin:miter;stroke-miterlimit:4;stroke-dasharray:none;stroke-dashoffset:0;stroke-opacity:1"
         id="rect2192" />
      <path
         d="M 400,1052.375 L 400,1077.375 L 550,1077.375 C 549.99999,1063.9523 560.5969,1052.9645 573.875,1052.375 L 400,1052.375 z "
         style="opacity:1;fill:#333333;fill-opacity:1;fill-rule:evenodd;stroke:none;stroke-width:3.125;stroke-linecap:square;stroke-linejoin:miter;stroke-miterlimit:4;stroke-dasharray:none;stroke-dashoffset:0;stroke-opacity:1"
         id="rect10383" />
      <rect
         width="3400"
         height="150"
         x="0"
         y="902.36218"
         style="opacity:1;fill:#333333;fill-opacity:1;fill-rule:evenodd;stroke:none;stroke-width:1.00100005;stroke-linecap:square;stroke-linejoin:miter;stroke-miterlimit:4;stroke-dasharray:none;stroke-dashoffset:0;stroke-opacity:1"
         id="rect1317" />
      <path
         d="M 567.71875,977.48704 C 513.74546,977.82926 470.0625,1021.7464 470.0625,1075.7997 M 569.24858,977.46644 C 591.40507,977.46644 753.56157,977.46644 775.71806,977.46644"
         style="fill:none;fill-opacity:1;fill-rule:evenodd;stroke:#ffe501;stroke-width:3.125;stroke-linecap:square;stroke-linejoin:miter;stroke-miterlimit:4;stroke-dashoffset:0;stroke-opacity:1"
         id="path10359" />
      <rect
         width="3000"
         height="7.5"
         x="400"
         y="1034.8622"
         style="opacity:1;fill:#ffffff;fill-opacity:1;fill-rule:evenodd;stroke:none;stroke-width:1.00100005;stroke-linecap:square;stroke-linejoin:miter;stroke-miterlimit:4;stroke-dasharray:none;stroke-dashoffset:0;stroke-opacity:1"
         id="rect5062" />
      <rect
         width="3000"
         height="7.5"
         x="400"
         y="912.36218"
         style="opacity:1;fill:#ffffff;fill-opacity:1;fill-rule:evenodd;stroke:none;stroke-width:1.00100005;stroke-linecap:square;stroke-linejoin:miter;stroke-miterlimit:4;stroke-dasharray:none;stroke-dashoffset:0;stroke-opacity:1"
         id="rect5937" />
      <path
         d="M 447.7807,958.21129 L 481.08,977.43674 L 447.7807,996.66219"
         style="fill:none;fill-opacity:0.75;fill-rule:evenodd;stroke:#ffffff;stroke-width:4.99998951;stroke-linecap:butt;stroke-linejoin:miter;stroke-miterlimit:4;stroke-dasharray:none;stroke-opacity:1"
         id="path7695" />
      <path
         d="M 400,974.93627 L 449.9998,974.93627 L 449.9998,979.93627 L 400,979.93627 L 400,974.93627 z "
         style="fill:#ffffff;fill-opacity:1;fill-rule:evenodd;stroke:none;stroke-width:5;stroke-linecap:square;stroke-linejoin:miter;stroke-miterlimit:4;stroke-dashoffset:0;stroke-opacity:1"
         id="rect8570" />
      <path
         d="M 572.7807,958.21129 L 606.08,977.43674 L 572.7807,996.66219"
         style="fill:none;fill-opacity:0.75;fill-rule:evenodd;stroke:#ffffff;stroke-width:4.99998951;stroke-linecap:butt;stroke-linejoin:miter;stroke-miterlimit:4;stroke-dasharray:none;stroke-opacity:1"
         id="path10325" />
      <path
         d="M 525,974.93627 L 574.9998,974.93627 L 574.9998,979.93627 L 525,979.93627 L 525,974.93627 z "
         style="fill:#ffffff;fill-opacity:1;fill-rule:evenodd;stroke:none;stroke-width:5;stroke-linecap:square;stroke-linejoin:miter;stroke-miterlimit:4;stroke-dashoffset:0;stroke-opacity:1"
         id="path10327" />
      <path
         d="M 697.7807,958.21129 L 731.08,977.43674 L 697.7807,996.66219"
         style="fill:none;fill-opacity:0.75;fill-rule:evenodd;stroke:#ffffff;stroke-width:4.99998951;stroke-linecap:butt;stroke-linejoin:miter;stroke-miterlimit:4;stroke-dasharray:none;stroke-opacity:1"
         id="path10333" />
      <path
         d="M 650,974.93627 L 699.9998,974.93627 L 699.9998,979.93627 L 650,979.93627 L 650,974.93627 z "
         style="fill:#ffffff;fill-opacity:1;fill-rule:evenodd;stroke:none;stroke-width:5;stroke-linecap:square;stroke-linejoin:miter;stroke-miterlimit:4;stroke-dashoffset:0;stroke-opacity:1"
         id="path10335" />
      <path
         d="M 751.33379,1007.0709 L 769.03552,1017.3652 L 751.33379,1027.6594"
         style="fill:none;fill-opacity:0.75;fill-rule:evenodd;stroke:#ffffff;stroke-width:2.66758466;stroke-linecap:butt;stroke-linejoin:miter;stroke-miterlimit:4;stroke-dasharray:none;stroke-opacity:1"
         id="path10337" />
      <path
         d="M 751.33379,967.07084 L 769.03552,977.36515 L 751.33379,987.65935"
         style="fill:none;fill-opacity:0.75;fill-rule:evenodd;stroke:#ffffff;stroke-width:2.66758466;stroke-linecap:butt;stroke-linejoin:miter;stroke-miterlimit:4;stroke-dasharray:none;stroke-opacity:1"
         id="path10339" />
      <path
         d="M 751.33379,927.07083 L 769.03552,937.36514 L 751.33379,947.65934"
         style="fill:none;fill-opacity:0.75;fill-rule:evenodd;stroke:#ffffff;stroke-width:2.66758466;stroke-linecap:butt;stroke-linejoin:miter;stroke-miterlimit:4;stroke-dasharray:none;stroke-opacity:1"
         id="path10347" />
      <rect
         width="18.678177"
         height="116.14818"
         x="779.28455"
         y="919.28809"
         style="opacity:1;fill:#ffffff;fill-opacity:1;fill-rule:evenodd;stroke:#ffffff;stroke-width:3.85182333;stroke-linecap:square;stroke-linejoin:miter;stroke-miterlimit:4;stroke-dasharray:none;stroke-dashoffset:0;stroke-opacity:1"
         id="rect10349" />
      <rect
         width="100"
         height="8.181818"
         x="806.54419"
         y="1020.1804"
         style="opacity:1;fill:#ffffff;fill-opacity:1;fill-rule:evenodd;stroke:none;stroke-width:3.125;stroke-linecap:square;stroke-linejoin:miter;stroke-miterlimit:4;stroke-dasharray:none;stroke-dashoffset:0;stroke-opacity:1"
         id="rect12172" />
      <rect
         width="100"
         height="8.181818"
         x="806.54419"
         y="1007.9077"
         style="opacity:1;fill:#ffffff;fill-opacity:1;fill-rule:evenodd;stroke:none;stroke-width:3.125;stroke-linecap:square;stroke-linejoin:miter;stroke-miterlimit:4;stroke-dasharray:none;stroke-dashoffset:0;stroke-opacity:1"
         id="rect13047" />
      <rect
         width="100"
         height="8.181818"
         x="806.54419"
         y="995.63489"
         style="opacity:1;fill:#ffffff;fill-opacity:1;fill-rule:evenodd;stroke:none;stroke-width:3.125;stroke-linecap:square;stroke-linejoin:miter;stroke-miterlimit:4;stroke-dasharray:none;stroke-dashoffset:0;stroke-opacity:1"
         id="rect13049" />
      <rect
         width="100"
         height="8.181818"
         x="806.54419"
         y="983.36218"
         style="opacity:1;fill:#ffffff;fill-opacity:1;fill-rule:evenodd;stroke:none;stroke-width:3.125;stroke-linecap:square;stroke-linejoin:miter;stroke-miterlimit:4;stroke-dasharray:none;stroke-dashoffset:0;stroke-opacity:1"
         id="rect13051" />
      <rect
         width="100"
         height="8.181818"
         x="806.54419"
         y="964.18036"
         style="opacity:1;fill:#ffffff;fill-opacity:1;fill-rule:evenodd;stroke:none;stroke-width:3.125;stroke-linecap:square;stroke-linejoin:miter;stroke-miterlimit:4;stroke-dasharray:none;stroke-dashoffset:0;stroke-opacity:1"
         id="rect13053" />
      <rect
         width="100"
         height="8.181818"
         x="806.54419"
         y="951.90765"
         style="opacity:1;fill:#ffffff;fill-opacity:1;fill-rule:evenodd;stroke:none;stroke-width:3.125;stroke-linecap:square;stroke-linejoin:miter;stroke-miterlimit:4;stroke-dasharray:none;stroke-dashoffset:0;stroke-opacity:1"
         id="rect13055" />
      <rect
         width="100"
         height="8.181818"
         x="806.54419"
         y="939.63483"
         style="opacity:1;fill:#ffffff;fill-opacity:1;fill-rule:evenodd;stroke:none;stroke-width:3.125;stroke-linecap:square;stroke-linejoin:miter;stroke-miterlimit:4;stroke-dasharray:none;stroke-dashoffset:0;stroke-opacity:1"
         id="rect13057" />
      <rect
         width="100"
         height="8.181818"
         x="806.54419"
         y="927.36212"
         style="opacity:1;fill:#ffffff;fill-opacity:1;fill-rule:evenodd;stroke:none;stroke-width:3.125;stroke-linecap:square;stroke-linejoin:miter;stroke-miterlimit:4;stroke-dasharray:none;stroke-dashoffset:0;stroke-opacity:1"
         id="rect13059" />
      <path
         d="M 1082.5132,-30.338236 C 1081.6732,-30.498236 1081.1852,-30.990235 1081.0492,-31.814236 C 1081.0492,-32.670234 1081.0492,-33.526233 1081.0492,-34.382236 C 1081.0492,-35.246231 1081.0492,-36.11023 1081.0492,-36.974236 C 1081.1532,-37.598229 1081.4292,-38.018228 1081.8772,-38.234236 C 1082.3252,-38.450228 1082.8372,-38.494228 1083.4132,-38.366236 C 1083.7012,-38.190228 1083.9332,-38.002228 1084.1092,-37.802236 C 1084.2852,-37.610229 1084.4052,-37.334229 1084.4692,-36.974236 C 1084.4692,-36.11023 1084.4692,-35.250231 1084.4692,-34.394236 C 1084.4692,-33.538233 1084.4692,-32.686234 1084.4692,-31.838236 C 1084.3572,-31.062235 1083.9412,-30.566236 1083.2212,-30.350236 C 1083.1332,-30.350236 1083.0572,-30.350236 1082.9932,-30.350236 C 1082.9372,-30.342236 1082.7772,-30.338236 1082.5132,-30.338236 M 1082.6332,-31.490236 C 1082.9852,-31.490235 1083.2092,-31.646235 1083.3052,-31.958236 C 1083.3052,-32.766234 1083.3052,-33.570233 1083.3052,-34.370236 C 1083.3052,-35.178231 1083.3052,-35.98623 1083.3052,-36.794236 C 1083.2572,-36.938229 1083.2052,-37.058229 1083.1492,-37.154236 C 1082.9172,-37.330229 1082.7212,-37.366229 1082.5612,-37.262236 C 1082.4012,-37.166229 1082.2852,-37.010229 1082.2132,-36.794236 C 1082.2132,-35.99423 1082.2132,-35.190231 1082.2132,-34.382236 C 1082.2132,-33.582233 1082.2132,-32.782234 1082.2132,-31.982236 C 1082.2612,-31.734235 1082.4012,-31.570235 1082.6332,-31.490236 M 1085.1443,-34.406236 C 1085.0883,-34.518232 1085.0523,-34.622232 1085.0363,-34.718236 C 1085.0283,-34.822232 1085.0243,-34.974231 1085.0243,-35.174236 L 1085.0243,-36.806236 C 1085.0243,-36.966229 1085.0523,-37.122229 1085.1083,-37.274236 C 1085.1723,-37.426229 1085.3123,-37.658229 1085.5283,-37.970236 C 1085.7523,-38.282228 1086.1483,-38.438228 1086.7163,-38.438236 C 1087.2523,-38.438228 1087.6723,-38.254228 1087.9763,-37.886236 C 1088.2883,-37.526229 1088.4443,-37.114229 1088.4443,-36.650236 L 1088.4443,-35.342236 C 1088.4443,-35.038231 1088.3803,-34.726232 1088.2523,-34.406236 L 1086.7403,-30.362236 L 1085.4443,-30.362236 L 1086.7763,-33.734236 C 1086.5683,-33.686233 1086.4083,-33.662233 1086.2963,-33.662236 C 1086.0483,-33.662233 1085.8163,-33.730233 1085.6003,-33.866236 C 1085.3923,-34.010232 1085.2403,-34.190232 1085.1443,-34.406236 M 1086.7523,-37.310236 C 1086.5603,-37.310229 1086.4163,-37.246229 1086.3203,-37.118236 C 1086.2243,-36.990229 1086.1763,-36.83423 1086.1763,-36.650236 L 1086.1763,-35.342236 C 1086.1763,-35.142231 1086.2283,-34.978231 1086.3323,-34.850236 C 1086.4363,-34.722232 1086.5883,-34.658232 1086.7883,-34.658236 C 1086.9643,-34.658232 1087.0923,-34.718232 1087.1723,-34.838236 C 1087.2603,-34.966231 1087.3043,-35.134231 1087.3043,-35.342236 L 1087.3043,-36.650236 C 1087.3043,-36.85023 1087.2603,-37.010229 1087.1723,-37.130236 C 1087.0923,-37.250229 1086.9523,-37.310229 1086.7523,-37.310236 M 1082.9675,-20.762236 L 1082.9675,-28.766236 L 1084.9715,-28.766236 C 1085.4995,-28.766228 1085.9435,-28.582228 1086.3035,-28.214236 C 1086.6635,-27.846229 1086.8435,-27.398229 1086.8435,-26.870236 L 1086.8435,-26.126236 C 1086.8435,-25.390231 1086.5315,-24.826232 1085.9075,-24.434236 L 1087.1195,-20.762236 L 1085.9075,-20.762236 L 1084.8275,-24.194236 L 1084.1075,-24.194236 L 1084.1075,-20.762236 L 1082.9675,-20.762236 M 1085.5115,-25.454236 C 1085.5835,-25.542231 1085.6315,-25.642231 1085.6555,-25.754236 C 1085.6875,-25.866231 1085.7035,-25.99023 1085.7035,-26.126236 L 1085.7035,-26.870236 C 1085.7035,-27.118229 1085.6355,-27.318229 1085.4995,-27.470236 C 1085.3635,-27.622229 1085.1715,-27.698229 1084.9235,-27.698236 L 1084.1075,-27.698236 L 1084.1075,-25.202236 L 1084.9115,-25.202236 C 1085.1515,-25.202231 1085.3515,-25.286231 1085.5115,-25.454236"
         transform="matrix(-8.315092e-17,9.6167,-9.6167,-8.315092e-17,727.8715,-9454.381)"
         style="font-size:12px;font-style:normal;font-variant:normal;font-weight:normal;font-stretch:normal;text-align:center;line-height:80.00000119%;writing-mode:lr-tb;text-anchor:middle;fill:#ffffff;fill-opacity:1;font-family:DIN 1451 Engschrift"
         id="flowRoot13061" />
      <rect
         width="75"
         height="5"
         x="1125"
         y="975.36218"
         style="opacity:1;fill:#ffffff;fill-opacity:1;fill-rule:evenodd;stroke:none;stroke-width:3.125;stroke-linecap:square;stroke-linejoin:miter;stroke-miterlimit:4;stroke-dasharray:none;stroke-dashoffset:0;stroke-opacity:1"
         id="rect13944" />
      <rect
         width="75"
         height="5"
         x="1275"
         y="975.36218"
         style="opacity:1;fill:#ffffff;fill-opacity:1;fill-rule:evenodd;stroke:none;stroke-width:3.125;stroke-linecap:square;stroke-linejoin:miter;stroke-miterlimit:4;stroke-dasharray:none;stroke-dashoffset:0;stroke-opacity:1"
         id="rect13948" />
      <rect
         width="75"
         height="5"
         x="1425"
         y="975.36218"
         style="opacity:1;fill:#ffffff;fill-opacity:1;fill-rule:evenodd;stroke:none;stroke-width:3.125;stroke-linecap:square;stroke-linejoin:miter;stroke-miterlimit:4;stroke-dasharray:none;stroke-dashoffset:0;stroke-opacity:1"
         id="rect13950" />
      <rect
         width="75"
         height="5"
         x="1575"
         y="975.36218"
         style="opacity:1;fill:#ffffff;fill-opacity:1;fill-rule:evenodd;stroke:none;stroke-width:3.125;stroke-linecap:square;stroke-linejoin:miter;stroke-miterlimit:4;stroke-dasharray:none;stroke-dashoffset:0;stroke-opacity:1"
         id="rect13952" />
      <rect
         width="75"
         height="5"
         x="1725"
         y="975.36218"
         style="opacity:1;fill:#ffffff;fill-opacity:1;fill-rule:evenodd;stroke:none;stroke-width:3.125;stroke-linecap:square;stroke-linejoin:miter;stroke-miterlimit:4;stroke-dasharray:none;stroke-dashoffset:0;stroke-opacity:1"
         id="rect13954" />
      <rect
         width="75"
         height="5"
         x="1875"
         y="975.36218"
         style="opacity:1;fill:#ffffff;fill-opacity:1;fill-rule:evenodd;stroke:none;stroke-width:3.125;stroke-linecap:square;stroke-linejoin:miter;stroke-miterlimit:4;stroke-dasharray:none;stroke-dashoffset:0;stroke-opacity:1"
         id="rect13956" />
      <rect
         width="75"
         height="5"
         x="2025"
         y="975.36218"
         style="opacity:1;fill:#ffffff;fill-opacity:1;fill-rule:evenodd;stroke:none;stroke-width:3.125;stroke-linecap:square;stroke-linejoin:miter;stroke-miterlimit:4;stroke-dasharray:none;stroke-dashoffset:0;stroke-opacity:1"
         id="rect13958" />
      <rect
         width="75"
         height="5"
         x="2175"
         y="975.36218"
         style="opacity:1;fill:#ffffff;fill-opacity:1;fill-rule:evenodd;stroke:none;stroke-width:3.125;stroke-linecap:square;stroke-linejoin:miter;stroke-miterlimit:4;stroke-dasharray:none;stroke-dashoffset:0;stroke-opacity:1"
         id="rect13960" />
      <rect
         width="75"
         height="5"
         x="2325"
         y="975.36218"
         style="opacity:1;fill:#ffffff;fill-opacity:1;fill-rule:evenodd;stroke:none;stroke-width:3.125;stroke-linecap:square;stroke-linejoin:miter;stroke-miterlimit:4;stroke-dasharray:none;stroke-dashoffset:0;stroke-opacity:1"
         id="rect13962" />
      <rect
         width="75"
         height="5"
         x="2475"
         y="975.36218"
         style="opacity:1;fill:#ffffff;fill-opacity:1;fill-rule:evenodd;stroke:none;stroke-width:3.125;stroke-linecap:square;stroke-linejoin:miter;stroke-miterlimit:4;stroke-dasharray:none;stroke-dashoffset:0;stroke-opacity:1"
         id="rect13964" />
      <rect
         width="75"
         height="5"
         x="2625"
         y="975.36218"
         style="opacity:1;fill:#ffffff;fill-opacity:1;fill-rule:evenodd;stroke:none;stroke-width:3.125;stroke-linecap:square;stroke-linejoin:miter;stroke-miterlimit:4;stroke-dasharray:none;stroke-dashoffset:0;stroke-opacity:1"
         id="rect13966" />
      <rect
         width="75"
         height="5"
         x="2775"
         y="975.36218"
         style="opacity:1;fill:#ffffff;fill-opacity:1;fill-rule:evenodd;stroke:none;stroke-width:3.125;stroke-linecap:square;stroke-linejoin:miter;stroke-miterlimit:4;stroke-dasharray:none;stroke-dashoffset:0;stroke-opacity:1"
         id="rect13968" />
      <rect
         width="75"
         height="5"
         x="2925"
         y="975.36218"
         style="opacity:1;fill:#ffffff;fill-opacity:1;fill-rule:evenodd;stroke:none;stroke-width:3.125;stroke-linecap:square;stroke-linejoin:miter;stroke-miterlimit:4;stroke-dasharray:none;stroke-dashoffset:0;stroke-opacity:1"
         id="rect13970" />
      <rect
         width="75"
         height="5"
         x="3075"
         y="975.36218"
         style="opacity:1;fill:#ffffff;fill-opacity:1;fill-rule:evenodd;stroke:none;stroke-width:3.125;stroke-linecap:square;stroke-linejoin:miter;stroke-miterlimit:4;stroke-dasharray:none;stroke-dashoffset:0;stroke-opacity:1"
         id="rect13972" />
      <rect
         width="75"
         height="5"
         x="3225"
         y="975.36218"
         style="opacity:1;fill:#ffffff;fill-opacity:1;fill-rule:evenodd;stroke:none;stroke-width:3.125;stroke-linecap:square;stroke-linejoin:miter;stroke-miterlimit:4;stroke-dasharray:none;stroke-dashoffset:0;stroke-opacity:1"
         id="rect13974" />
      <rect
         width="25"
         height="5"
         x="3375"
         y="975.36218"
         style="opacity:1;fill:#ffffff;fill-opacity:1;fill-rule:evenodd;stroke:none;stroke-width:3.125;stroke-linecap:square;stroke-linejoin:miter;stroke-miterlimit:4;stroke-dasharray:none;stroke-dashoffset:0;stroke-opacity:1"
         id="rect13976" />
      <rect
         width="60"
         height="5"
         x="1200.0004"
         y="947.36218"
         style="opacity:1;fill:#ffffff;fill-opacity:1;fill-rule:evenodd;stroke:none;stroke-width:3.125;stroke-linecap:square;stroke-linejoin:miter;stroke-miterlimit:4;stroke-dasharray:none;stroke-dashoffset:0;stroke-opacity:1"
         id="rect13978" />
      <rect
         width="60"
         height="5"
         x="1200"
         y="937.36194"
         style="opacity:1;fill:#ffffff;fill-opacity:1;fill-rule:evenodd;stroke:none;stroke-width:3.125;stroke-linecap:square;stroke-linejoin:miter;stroke-miterlimit:4;stroke-dasharray:none;stroke-dashoffset:0;stroke-opacity:1"
         id="rect13980" />
      <rect
         width="60"
         height="5"
         x="1200"
         y="927.36194"
         style="opacity:1;fill:#ffffff;fill-opacity:1;fill-rule:evenodd;stroke:none;stroke-width:3.125;stroke-linecap:square;stroke-linejoin:miter;stroke-miterlimit:4;stroke-dasharray:none;stroke-dashoffset:0;stroke-opacity:1"
         id="rect13982" />
      <rect
         width="60"
         height="5"
         x="1200.0004"
         y="1022.3622"
         style="opacity:1;fill:#ffffff;fill-opacity:1;fill-rule:evenodd;stroke:none;stroke-width:3.125;stroke-linecap:square;stroke-linejoin:miter;stroke-miterlimit:4;stroke-dasharray:none;stroke-dashoffset:0;stroke-opacity:1"
         id="rect13984" />
      <rect
         width="60"
         height="5"
         x="1200"
         y="1012.3619"
         style="opacity:1;fill:#ffffff;fill-opacity:1;fill-rule:evenodd;stroke:none;stroke-width:3.125;stroke-linecap:square;stroke-linejoin:miter;stroke-miterlimit:4;stroke-dasharray:none;stroke-dashoffset:0;stroke-opacity:1"
         id="rect13986" />
      <rect
         width="60"
         height="5"
         x="1200"
         y="1002.3619"
         style="opacity:1;fill:#ffffff;fill-opacity:1;fill-rule:evenodd;stroke:none;stroke-width:3.125;stroke-linecap:square;stroke-linejoin:miter;stroke-miterlimit:4;stroke-dasharray:none;stroke-dashoffset:0;stroke-opacity:1"
         id="rect13988" />
      <rect
         width="120"
         height="25"
         x="1600"
         y="927.36218"
         style="opacity:1;fill:#ffffff;fill-opacity:1;fill-rule:evenodd;stroke:none;stroke-width:3.125;stroke-linecap:square;stroke-linejoin:miter;stroke-miterlimit:4;stroke-dasharray:none;stroke-dashoffset:0;stroke-opacity:1"
         id="rect13990" />
      <rect
         width="120"
         height="25"
         x="1600"
         y="1002.3622"
         style="opacity:1;fill:#ffffff;fill-opacity:1;fill-rule:evenodd;stroke:none;stroke-width:3.125;stroke-linecap:square;stroke-linejoin:miter;stroke-miterlimit:4;stroke-dasharray:none;stroke-dashoffset:0;stroke-opacity:1"
         id="rect13992" />
      <rect
         width="60"
         height="5"
         x="2000"
         y="1012.3619"
         style="opacity:1;fill:#ffffff;fill-opacity:1;fill-rule:evenodd;stroke:none;stroke-width:3.125;stroke-linecap:square;stroke-linejoin:miter;stroke-miterlimit:4;stroke-dasharray:none;stroke-dashoffset:0;stroke-opacity:1"
         id="rect13994" />
      <rect
         width="60"
         height="5"
         x="2000"
         y="1002.3619"
         style="opacity:1;fill:#ffffff;fill-opacity:1;fill-rule:evenodd;stroke:none;stroke-width:3.125;stroke-linecap:square;stroke-linejoin:miter;stroke-miterlimit:4;stroke-dasharray:none;stroke-dashoffset:0;stroke-opacity:1"
         id="rect13996" />
      <rect
         width="60"
         height="5"
         x="2400"
         y="1012.3619"
         style="opacity:1;fill:#ffffff;fill-opacity:1;fill-rule:evenodd;stroke:none;stroke-width:3.125;stroke-linecap:square;stroke-linejoin:miter;stroke-miterlimit:4;stroke-dasharray:none;stroke-dashoffset:0;stroke-opacity:1"
         id="rect13998" />
      <rect
         width="60"
         height="5"
         x="2400"
         y="1002.3619"
         style="opacity:1;fill:#ffffff;fill-opacity:1;fill-rule:evenodd;stroke:none;stroke-width:3.125;stroke-linecap:square;stroke-linejoin:miter;stroke-miterlimit:4;stroke-dasharray:none;stroke-dashoffset:0;stroke-opacity:1"
         id="rect14000" />
      <rect
         width="60"
         height="5"
         x="2800"
         y="1002.3619"
         style="opacity:1;fill:#ffffff;fill-opacity:1;fill-rule:evenodd;stroke:none;stroke-width:3.125;stroke-linecap:square;stroke-linejoin:miter;stroke-miterlimit:4;stroke-dasharray:none;stroke-dashoffset:0;stroke-opacity:1"
         id="rect14002" />
      <rect
         width="60"
         height="5"
         x="3200"
         y="1002.3619"
         style="opacity:1;fill:#ffffff;fill-opacity:1;fill-rule:evenodd;stroke:none;stroke-width:3.125;stroke-linecap:square;stroke-linejoin:miter;stroke-miterlimit:4;stroke-dasharray:none;stroke-dashoffset:0;stroke-opacity:1"
         id="rect14004" />
      <rect
         width="60"
         height="5"
         x="2000.0004"
         y="947.36218"
         style="opacity:1;fill:#ffffff;fill-opacity:1;fill-rule:evenodd;stroke:none;stroke-width:3.125;stroke-linecap:square;stroke-linejoin:miter;stroke-miterlimit:4;stroke-dasharray:none;stroke-dashoffset:0;stroke-opacity:1"
         id="rect14006" />
      <rect
         width="60"
         height="5"
         x="2000"
         y="937.36194"
         style="opacity:1;fill:#ffffff;fill-opacity:1;fill-rule:evenodd;stroke:none;stroke-width:3.125;stroke-linecap:square;stroke-linejoin:miter;stroke-miterlimit:4;stroke-dasharray:none;stroke-dashoffset:0;stroke-opacity:1"
         id="rect14008" />
      <rect
         width="60"
         height="5"
         x="2400.0005"
         y="947.36218"
         style="opacity:1;fill:#ffffff;fill-opacity:1;fill-rule:evenodd;stroke:none;stroke-width:3.125;stroke-linecap:square;stroke-linejoin:miter;stroke-miterlimit:4;stroke-dasharray:none;stroke-dashoffset:0;stroke-opacity:1"
         id="rect14010" />
      <rect
         width="60"
         height="5"
         x="2400"
         y="937.36194"
         style="opacity:1;fill:#ffffff;fill-opacity:1;fill-rule:evenodd;stroke:none;stroke-width:3.125;stroke-linecap:square;stroke-linejoin:miter;stroke-miterlimit:4;stroke-dasharray:none;stroke-dashoffset:0;stroke-opacity:1"
         id="rect14012" />
      <rect
         width="60"
         height="5"
         x="2800"
         y="947.36218"
         style="opacity:1;fill:#ffffff;fill-opacity:1;fill-rule:evenodd;stroke:none;stroke-width:3.125;stroke-linecap:square;stroke-linejoin:miter;stroke-miterlimit:4;stroke-dasharray:none;stroke-dashoffset:0;stroke-opacity:1"
         id="rect14014" />
      <rect
         width="60"
         height="5"
         x="3200"
         y="947.36218"
         style="opacity:1;fill:#ffffff;fill-opacity:1;fill-rule:evenodd;stroke:none;stroke-width:3.125;stroke-linecap:square;stroke-linejoin:miter;stroke-miterlimit:4;stroke-dasharray:none;stroke-dashoffset:0;stroke-opacity:1"
         id="rect14016" />
      <path
         d="M 43.59375,902.375 L 118.625,977.40625 L 43.65625,1052.375 L 57.78125,1052.375 L 129.21875,980.9375 L 132.78125,977.40625 L 129.21875,973.875 L 57.71875,902.375 L 43.59375,902.375 z M 143.59375,902.375 L 218.625,977.40625 L 143.65625,1052.375 L 157.78125,1052.375 L 229.21875,980.9375 L 232.78125,977.40625 L 229.21875,973.875 L 157.71875,902.375 L 143.59375,902.375 z M 243.59375,902.375 L 318.625,977.40625 L 243.65625,1052.375 L 257.78125,1052.375 L 329.21875,980.9375 L 332.78125,977.40625 L 329.21875,973.875 L 257.71875,902.375 L 243.59375,902.375 z M 343.59375,902.375 L 400,958.78125 L 400,944.65625 L 357.71875,902.375 L 343.59375,902.375 z M 0,944.65625 L 0,958.78125 L 18.625,977.40625 L 0,996.03125 L 0,1010.1563 L 29.21875,980.9375 L 32.78125,977.40625 L 29.21875,973.875 L 0,944.65625 z M 400,996.03125 L 343.65625,1052.375 L 357.78125,1052.375 L 400,1010.1563 L 400,996.03125 z "
         style="fill:#ffe501;fill-opacity:1;fill-rule:evenodd;stroke:none;stroke-width:10;stroke-linecap:butt;stroke-linejoin:miter;stroke-miterlimit:4;stroke-opacity:1"
         id="path14895" />
      <rect
         width="10"
         height="150"
         x="390"
         y="902.36218"
         style="opacity:1;fill:#ffe501;fill-opacity:1;fill-rule:evenodd;stroke:none;stroke-width:10;stroke-linecap:square;stroke-linejoin:miter;stroke-miterlimit:4;stroke-dasharray:none;stroke-dashoffset:0;stroke-opacity:1"
         id="rect15003" />
    </g>
  </g>
</svg>
